<?xml version="1.0" encoding="iso-8859-1"?>
<!-- Generator: Adobe Illustrator 16.0.0, SVG Export Plug-In . SVG Version: 6.00 Build 0)  -->
<!DOCTYPE svg PUBLIC "-//W3C//DTD SVG 1.1//EN" "http://www.w3.org/Graphics/SVG/1.1/DTD/svg11.dtd">
<svg version="1.1" id="Capa_1" xmlns="http://www.w3.org/2000/svg" xmlns:xlink="http://www.w3.org/1999/xlink" x="0px" y="0px"
	 width="45.786px" height="45.786px" viewBox="0 0 45.786 45.786" style="enable-background:new 0 0 45.786 45.786;"
	 xml:space="preserve">
<g>
	<g>
		<path d="M45.161,37.415c-2.765-2.61-4.193-5.471-4.244-8.5c-0.093-5.459,4.245-9.908,4.289-9.952
			c0.774-0.779,0.772-2.039-0.004-2.817c-0.778-0.779-2.042-0.779-2.82,0c-0.187,0.187-3.846,3.903-5.063,9.217h-4.293v-1.002
			c0-1.184-0.34-2.285-0.95-3.148c0.005-0.008,0.011-0.015,0.016-0.022c0.603-0.84,0.761-1.925,0.429-2.901L28.467,6.407
			c-0.443-1.299-1.662-2.168-3.035-2.168H13.668c-1.769,0-3.219,1.43-3.219,3.199v11.885c0,0.021,0.013,0.042,0.013,0.064H10.15
			c-2.702,0-5.055,2.272-5.055,4.974v4.909C2.202,29.79,0,32.321,0,35.36c0,3.415,2.778,6.188,6.193,6.188h24.006
			c3.414,0,6.193-2.772,6.193-6.188c0-2.396-1.371-4.477-3.369-5.505v-0.508h3.914c0.168,4.002,2.013,7.69,5.482,10.968
			c0.385,0.364,0.877,0.544,1.369,0.544c0.529,0,1.059-0.21,1.451-0.625C45.998,39.435,45.962,38.172,45.161,37.415z M25.636,7.371
			l4.126,12.023l-6.364-0.007V7.227h2.034C25.523,7.227,25.605,7.284,25.636,7.371z M13.438,19.323V7.438
			c0-0.119,0.111-0.211,0.231-0.211h6.741v12.16h-6.947C13.457,19.367,13.438,19.346,13.438,19.323z M30.201,38.561H6.194
			c-1.765,0-3.202-1.43-3.202-3.195c0-1.765,1.437-3.195,3.202-3.195H30.2c1.765,0,3.202,1.431,3.202,3.195
			C33.402,37.131,31.966,38.561,30.201,38.561z"/>
		<circle cx="7.238" cy="35.365" r="1.87"/>
		<circle cx="14.545" cy="35.365" r="1.87"/>
		<circle cx="21.851" cy="35.365" r="1.87"/>
		<circle cx="29.156" cy="35.365" r="1.87"/>
	</g>
</g>
<g>
</g>
<g>
</g>
<g>
</g>
<g>
</g>
<g>
</g>
<g>
</g>
<g>
</g>
<g>
</g>
<g>
</g>
<g>
</g>
<g>
</g>
<g>
</g>
<g>
</g>
<g>
</g>
<g>
</g>
</svg>
